<?xml version="1.0" encoding="UTF-8" standalone="no"?>
<!-- Created with Inkscape (http://www.inkscape.org/) -->

<svg
   version="1.1"
   id="svg1"
   width="690"
   height="522"
   viewBox="0 0 690 522"
   sodipodi:docname="BrDev2.svg"
   inkscape:version="1.4.2 (f4327f4, 2025-05-13)"
   xmlns:inkscape="http://www.inkscape.org/namespaces/inkscape"
   xmlns:sodipodi="http://sodipodi.sourceforge.net/DTD/sodipodi-0.dtd"
   xmlns="http://www.w3.org/2000/svg"
   xmlns:svg="http://www.w3.org/2000/svg">
  <defs
     id="defs1" />
  <sodipodi:namedview
     id="namedview1"
     pagecolor="#ffffff"
     bordercolor="#000000"
     borderopacity="0.25"
     inkscape:showpageshadow="2"
     inkscape:pageopacity="0.0"
     inkscape:pagecheckerboard="0"
     inkscape:deskcolor="#d1d1d1"
     inkscape:zoom="1.1527737"
     inkscape:cx="382.12183"
     inkscape:cy="203.42241"
     inkscape:window-width="1920"
     inkscape:window-height="1111"
     inkscape:window-x="-9"
     inkscape:window-y="-9"
     inkscape:window-maximized="1"
     inkscape:current-layer="g8" />
  <g
     inkscape:groupmode="layer"
     inkscape:label="Image"
     id="g1">
    <g
       id="g8"
       transform="matrix(1.5163529,0,0,1.68016,-167.21917,-175.81163)"
       style="stroke-width:0.626505">
      <path
         style="fill:#6fd5ff;stroke:#010202;stroke-width:1.25301;stroke-dasharray:none;stroke-opacity:1;fill-opacity:1"
         d="m 135.32997,400.08754 c 1.01766,-1.09644 6.52337,-7.08566 12.2349,-13.30938 5.71153,-6.22371 14.48762,-15.74668 19.50243,-21.16216 l 9.11783,-9.84632 -2.37047,-0.42469 c -1.30376,-0.23359 -9.61622,-0.44061 -18.47212,-0.46005 l -16.10165,-0.0353 V 234.58646 114.32333 l 65.48003,0.24547 c 63.53749,0.23818 65.65289,0.28328 71.30728,1.52024 15.02358,3.2866 26.71469,9.27262 35.80701,18.33372 16.63807,16.58093 21.29335,42.17903 11.47932,63.12161 -5.09923,10.88146 -12.00894,18.54185 -23.90087,26.49744 l -5.13745,3.43691 2.27337,1.2724 c 8.16883,4.57202 17.72495,11.56353 23.08947,16.89286 6.03627,5.99668 11.51693,13.28701 10.58458,14.07953 -1.623,1.3796 -6.98673,5.30616 -20.12933,14.73583 -16.09153,11.5455 -15.53107,11.34704 -15.6211,5.53146 -0.20148,-13.01383 -10.30645,-25.11444 -24.88566,-29.80034 -4.26902,-1.37211 -6.5424,-1.6449 -17.48178,-2.09766 -6.91604,-0.28625 -25.61695,-0.53554 -41.55758,-0.55398 l -28.98296,-0.0335 v 26.58574 c 0,14.62216 0.1808,30.35577 0.40179,34.96357 l 0.40179,8.37783 30.72806,0.0537 c 16.90043,0.0296 32.03,0.23657 33.62126,0.46004 l 2.89321,0.40632 -50.04342,36.49706 c -60.95066,44.45179 -64.77622,47.20946 -65.50786,47.22175 -0.31921,0.006 0.25226,-0.88735 1.26992,-1.9838 z M 242.59812,212.54478 c 15.8545,-0.61566 19.31063,-1.1947 25.36114,-4.24899 4.21631,-2.12838 11.11118,-9.1776 13.89695,-14.20804 1.78013,-3.2145 1.83926,-3.57869 1.83382,-11.29574 -0.007,-9.27547 -0.57509,-11.62141 -4.09322,-16.88986 -4.47888,-6.70718 -14.19426,-12.58316 -23.22861,-14.04896 -2.42128,-0.39284 -17.57788,-0.6436 -39.07267,-0.64644 l -35.11692,-0.005 v 30.62713 30.62714 l 1.38014,0.26583 c 2.66673,0.51363 44.47888,0.38797 59.03937,-0.17744 z"
         id="path2"
         sodipodi:nodetypes="ssscsscccssssscsssssssscssccscscsscsscssccccscc" />
      <path
         style="fill:#ffffff;stroke:#010202;stroke-width:1.25301;stroke-opacity:1"
         d="m 358.59238,408.36664 -10.08362,-0.27379 -0.53337,-3.22644 c -0.29336,-1.77454 -0.53768,-36.81895 -0.54293,-77.87647 l -0.01,-74.65003 19.69205,-14.26595 c 10.83064,-7.84627 19.95449,-14.3795 20.27523,-14.5183 0.32074,-0.1388 0.87228,14.5974 1.22565,32.74711 l 0.64249,32.99946 15.29929,-0.0722 c 8.4146,-0.0397 25.25353,-0.36557 37.41984,-0.72417 21.1265,-0.62271 22.39344,-0.75688 28.19287,-2.98587 14.76169,-5.67359 24.62234,-15.8676 27.2199,-28.14012 4.02882,-19.03473 -3.94234,-35.73409 -20.96534,-43.92182 -9.82745,-4.72682 -15.17151,-5.57959 -40.94167,-6.53322 -12.78712,-0.47319 -23.35674,-0.96777 -23.48804,-1.09907 -0.35184,-0.35184 91.95221,-67.33257 92.31691,-66.99006 0.17069,0.16029 -3.76184,5.09638 -8.73893,10.9691 -14.35941,16.94337 -17.13652,20.57769 -16.66437,21.8081 0.24357,0.63473 2.67105,1.84624 5.3944,2.69225 7.9905,2.48226 19.14781,8.29014 26.34658,13.71458 21.54368,16.23365 32.31342,41.40682 29.32683,68.54843 -2.51326,22.84006 -13.31142,40.80457 -32.27001,53.68647 -4.98478,3.38704 -18.08691,10.09112 -23.21596,11.87911 -1.86546,0.65031 -2.52746,1.30815 -2.07483,2.0618 0.3656,0.60873 13.70712,19.57659 29.64782,42.1508 15.9407,22.5742 28.78531,41.24178 28.54359,41.4835 -0.24172,0.24171 -10.33345,0.44447 -22.42609,0.45056 l -21.9866,0.0111 -2.60242,-3.01418 c -1.43133,-1.65781 -11.1904,-15.21597 -21.68683,-30.12926 -10.49642,-14.91328 -22.4128,-31.8391 -26.48085,-37.61291 l -7.39645,-10.49788 -18.194,-0.26666 c -10.0067,-0.14665 -21.02414,-0.0158 -24.48318,0.29088 l -6.28918,0.55754 -0.005,32.23936 c -0.002,17.73164 -0.25653,36.04539 -0.56457,40.69721 l -0.56007,8.45787 -9.62823,-0.18654 c -5.29553,-0.10259 -14.16587,-0.30974 -19.71186,-0.46032 z"
         id="path3" />
    </g>
  </g>
</svg>
